<?xml version="1.0" encoding="UTF-8"?>
<svg width="59px" height="75px" viewBox="0 0 59 75" version="1.1" xmlns="http://www.w3.org/2000/svg" xmlns:xlink="http://www.w3.org/1999/xlink">
    <!-- Generator: Sketch 51.3 (57544) - http://www.bohemiancoding.com/sketch -->
    <title>Group 4</title>
    <desc>Created with Sketch.</desc>
    <defs></defs>
    <g id="Page-1" stroke="none" stroke-width="1" fill="none" fill-rule="evenodd">
        <g id="PR_MyAccounts_Desktop" transform="translate(-120.000000, -1245.000000)">
            <g id="Group-4" transform="translate(120.000000, 1245.000000)">
                <path d="M43.75,36.4042744 L43.75,56.0833333 C43.75,57.6941639 42.4441639,59 40.8333333,59 L2.91666667,59 C1.30583615,59 0,57.6941639 0,56.0833333 L0,3.58333333 C0,1.97250281 1.30583615,0.666666667 2.91666667,0.666666667 L40.8333333,0.666666667 C42.4441639,0.666666667 43.75,1.97250281 43.75,3.58333333 L43.75,23.9915254 L37.9176773,23.9915254 L37.9176773,36.4042744" id="Combined-Shape" fill="#FFFFFF"></path>
                <path d="M5.5876446,0.416278747 L25.5121729,9.03229099 C26.9765033,9.66551493 27.9245283,11.1083396 27.9245283,12.7037191 L27.9245283,70.3003593 C27.9245283,72.5094983 26.1336673,74.3003593 23.9245283,74.3003593 C23.1013671,74.3003593 22.2982499,74.046399 21.6247462,73.5731261 L1.70021793,59.5721062 C0.634363426,58.8231274 3.71224785e-15,57.6020348 3.55271368e-15,56.2993394 L0,4.08770689 C-2.705415e-16,1.87856789 1.790861,0.087706891 4,0.087706891 C4.54609537,0.087706891 5.08640713,0.199527407 5.5876446,0.416278747 Z" id="Rectangle-7" fill="#EAEAEA"></path>
                <g id="Group-5" transform="translate(40.000000, 24.833333)" fill="#FFFFFF">
                    <rect id="Rectangle-9" x="0" y="3.33333333" width="16.6666667" height="2.5" rx="1.25"></rect>
                    <path d="M18.2111456,5.47776052 L12.2805469,8.44305987 C11.7865684,8.69004912 11.1858954,8.48982477 10.9389061,7.99584627 C10.8694784,7.85699084 10.8333333,7.70387777 10.8333333,7.54863268 L10.8333333,1.61803399 C10.8333333,1.06574924 11.2810486,0.618033989 11.8333333,0.618033989 C11.9885784,0.618033989 12.1416915,0.654179081 12.2805469,0.723606798 L18.2111456,3.68890614 C18.7051241,3.93589539 18.9053485,4.53656843 18.6583592,5.03054693 C18.5615955,5.22407433 18.404673,5.38099682 18.2111456,5.47776052 Z" id="Triangle"></path>
                </g>
            </g>
        </g>
    </g>
</svg>