<?xml version="1.0" encoding="UTF-8"?>
<svg width="46px" height="80px" viewBox="0 0 46 80" version="1.1" xmlns="http://www.w3.org/2000/svg" xmlns:xlink="http://www.w3.org/1999/xlink">
    <!-- Generator: Sketch 51.3 (57544) - http://www.bohemiancoding.com/sketch -->
    <title>Combined Shape</title>
    <desc>Created with Sketch.</desc>
    <defs>
        <linearGradient x1="50%" y1="0%" x2="50%" y2="100%" id="linearGradient-1">
            <stop stop-color="#FF6464" offset="0%"></stop>
            <stop stop-color="#FF3434" offset="100%"></stop>
        </linearGradient>
    </defs>
    <g id="Page-1" stroke="none" stroke-width="1" fill="none" fill-rule="evenodd">
        <g id="PR_MyAccounts_Desktop" transform="translate(-127.000000, -643.000000)" fill="url(#linearGradient-1)">
            <path d="M172.682759,706.227586 L172.682759,723 L162.174618,723 C162.174618,716.235464 156.6776,710.751724 149.896685,710.751724 C143.11577,710.751724 137.618753,716.235464 137.618753,723 L127,723 L127,706.227586 L134.724138,706.227586 L134.724138,705.124138 L127,705.124138 L127,643 L137.618753,643 C137.618753,649.764536 143.11577,655.248276 149.896685,655.248276 C156.6776,655.248276 162.174618,649.764536 162.174618,643 L172.682759,643 L172.682759,705.124138 L164.958621,705.124138 L164.958621,706.227586 L172.682759,706.227586 Z M136.489655,705.124138 L136.489655,706.227586 L144.213793,706.227586 L144.213793,705.124138 L136.489655,705.124138 Z M145.97931,705.124138 L145.97931,706.227586 L153.703448,706.227586 L153.703448,705.124138 L145.97931,705.124138 Z M155.468966,705.124138 L155.468966,706.227586 L163.193103,706.227586 L163.193103,705.124138 L155.468966,705.124138 Z M137.924138,660.213793 L137.924138,699.055172 L140.682759,699.055172 L140.682759,660.213793 L137.924138,660.213793 Z M149.068966,669.041379 L149.068966,699.055172 L151.827586,699.055172 L151.827586,669.041379 L149.068966,669.041379 Z M159.110345,679.634483 L159.110345,699.055172 L161.868966,699.055172 L161.868966,679.634483 L159.110345,679.634483 Z" id="Combined-Shape"></path>
        </g>
    </g>
</svg>