<svg xmlns="http://www.w3.org/2000/svg" xmlns:xlink="http://www.w3.org/1999/xlink" viewBox="0 0 54 66" fill="#fff" fill-rule="evenodd" stroke="#000" stroke-linecap="round" stroke-linejoin="round"><use xlink:href="#A" x=".5" y=".5"/><symbol id="A" overflow="visible"><path d="M43.522 34.006c-.074-8.097 6.619-11.987 6.92-12.179-3.765-5.508-9.619-6.258-11.708-6.347-4.979-.507-9.722 2.934-12.252 2.934s-6.428-2.861-10.561-2.78c-5.435.081-10.443 3.155-13.245 8.023-5.64 9.783-1.44 24.293 4.061 32.243 2.692 3.883 5.891 8.259 10.105 8.097 4.06-.162 5.589-2.625 10.487-2.625s6.28 2.625 10.561 2.545c4.361-.088 7.126-3.971 9.796-7.869 3.081-4.508 4.354-8.876 4.427-9.104-.096-.037-8.501-3.258-8.59-12.936m-8.054-23.786C37.705 7.516 39.213 3.751 38.801 0c-3.221.132-7.119 2.147-9.428 4.854-2.067 2.39-3.883 6.222-3.39 9.899 3.581.279 7.251-1.831 9.487-4.53" stroke="none" fill="#000" fill-rule="nonzero"/></symbol></svg>