<svg height="70" viewBox="0 0 109 70" width="109" xmlns="http://www.w3.org/2000/svg"><g fill="none" fill-rule="evenodd" stroke-linecap="round" stroke-linejoin="round" transform="translate(2.083 2.083)"><g transform="translate(0 2)"><path d="m35.677 31.562-8.333 8.333-2.771-.917-23.364 21.543c-.729-1.292-1.187-3-1.187-4.833v-55.209l35.656 31.083z"/><path d="m104.063.313v55.333c0 1.792-.417 3.438-1.146 4.729l-23.577-21.566-2.146.121-8.469-7.929z"/><path d="m.188.042 9.313 8.604c.469.434.97.831 1.5 1.188 5.063 3.75 10.958 3.75 16-.021.5034011-.35836821.9836886-.74814256 1.438-1.167l9.374-8.646" transform="translate(33 31)"/></g><path d="m33.188 33.042 9.313 8.604c.469.434.97.831 1.5 1.188 5.063 3.75 10.958 3.75 16-.021.503-.358.983-.748 1.438-1.167l9.374-8.646 32.083 29.375c-.875 1.604-2.229 2.646-3.75 2.646h-94.291c-1.458 0-2.792-.979-3.687-2.542l31.979-29.458" fill-rule="nonzero"/><g fill-rule="nonzero"><path d="m76.198.846 25.719 23.55c-.875 1.604-2.229 2.646-3.75 2.646h-94.291c-1.458 0-2.792-.979-3.687-2.542l25.163-23.179" transform="translate(1 38)"/><path d="m104.063 2.313-42.625 39.312c-.454.419-.934.808-1.437 1.167-5.042 3.75-10.937 3.75-16 .021-.53-.357-1.031-.754-1.5-1.187l-42.501-39.209.292-.417c.875-1.25 2.083-2 3.333-2h96.833c1.25 0 2.417.729 3.271 1.875.104.125.208.271.292.417z"/></g><g stroke="#000" stroke-width="4.167"><path d="m24.573 40.979-23.364 21.542c-.729-1.292-1.187-3-1.187-4.833v-55.209m104.042-.167v55.333c0 1.792-.417 3.438-1.146 4.729l-23.578-21.566m-77.996-39.225-.129-.083"/><path d="m33.188 33.042 9.313 8.604c.469.434.97.831 1.5 1.188 5.063 3.75 10.958 3.75 16-.021.5034011-.3583682.9836886-.7481426 1.438-1.167l9.374-8.646"/><path d="m77.198 38.846 25.719 23.55c-.875 1.604-2.229 2.646-3.75 2.646h-94.291c-1.458 0-2.792-.979-3.687-2.542l25.163-23.179"/><path d="m104.063 2.313-42.625 39.312c-.454.419-.934.808-1.437 1.167-5.042 3.75-10.937 3.75-16 .021-.53-.357-1.031-.754-1.5-1.187l-42.501-39.209.292-.417c.875-1.25 2.083-2 3.333-2h96.833c1.25 0 2.417.729 3.271 1.875.104.125.208.271.292.417z"/></g></g></svg>