<svg xmlns="http://www.w3.org/2000/svg" xmlns:xlink="http://www.w3.org/1999/xlink" viewBox="0 0 257 258" fill="#fff" fill-rule="evenodd" stroke="#000" stroke-linecap="round" stroke-linejoin="round"><use xlink:href="#A" x=".5" y=".5"/><symbol id="A" overflow="visible"><g stroke="none" fill-rule="nonzero"><path d="M241.87 0H14.13C6.326 0 0 6.326 0 14.13v227.74C0 249.674 6.326 256 14.13 256h122.62v-99H103.5v-38.75h33.25v-28.5c0-33.065 20.195-51.07 49.7-51.07 14.125 0 26.27 1.05 29.8 1.5v34.555H195.9c-16.05 0-19.16 7.625-19.16 18.82v24.695h38.37l-5 38.75h-33.37v99h65.12A14.13 14.13 0 0 0 256 241.87V14.13C256 6.326 249.674 0 241.87 0z" fill="#4267b2"/><path d="M176.75 256v-99h33.375l5-38.75H176.75V93.57c0-11.195 3.1-18.82 19.16-18.82h20.34V40.185c-3.54-.47-15.685-1.5-29.8-1.5-29.5 0-49.7 18-49.7 51.07v28.5H103.5V157h33.25v99z"/></g></symbol></svg>