<?xml version="1.0" encoding="UTF-8"?>
<svg width="719px" height="558px" viewBox="0 0 719 558" version="1.1" xmlns="http://www.w3.org/2000/svg" xmlns:xlink="http://www.w3.org/1999/xlink">
    <!-- Generator: Sketch 51.3 (57544) - http://www.bohemiancoding.com/sketch -->
    <title>undraw_maker_launch_crhe</title>
    <desc>Created with Sketch.</desc>
    <defs>
        <rect id="path-1" x="0" y="0" width="720" height="647"></rect>
    </defs>
    <g id="Page-1" stroke="none" stroke-width="1" fill="none" fill-rule="evenodd">
        <g id="PR_MyAccActivePasses_Desktop" transform="translate(0.000000, -1076.000000)">
            <g id="undraw_maker_launch_crhe" transform="translate(-1.000000, 987.000000)">
                <mask id="mask-2" fill="white">
                    <use xlink:href="#path-1"></use>
                </mask>
                <g id="Mask"></g>
                <g mask="url(#mask-2)" id="Group-2">
                    <g transform="translate(-184.000000, 89.000000)">
                        <g>
                            <g fill-rule="nonzero">
                                <rect id="Rectangle-path" fill="#AA7070" x="0.64516129" y="248" width="859.354839" height="555"></rect>
                                <rect id="Rectangle-path" fill="#AA7070" x="23.8709677" y="318.105263" width="812.903226" height="452.763158"></rect>
                                <rect id="Rectangle-path" fill="#5D0925" x="0.64516129" y="245.078947" width="859.354839" height="37.9736842"></rect>
                                <rect id="Rectangle-path" fill="#CEB7A9" x="125.483871" y="353.157895" width="159.677419" height="172.342105"></rect>
                                <rect id="Rectangle-path" fill="#CEB7A9" x="349.032258" y="353.157895" width="159.677419" height="172.342105"></rect>
                                <rect id="Rectangle-path" fill="#CEB7A9" x="578.387097" y="353.157895" width="159.677419" height="172.342105"></rect>
                                <rect id="Rectangle-path" fill="#CEB7A9" x="125.483871" y="557.631579" width="159.677419" height="172.342105"></rect>
                                <rect id="Rectangle-path" fill="#CEB7A9" x="349.032258" y="557.631579" width="159.677419" height="172.342105"></rect>
                                <rect id="Rectangle-path" fill="#CEB7A9" x="578.387097" y="557.631579" width="159.677419" height="172.342105"></rect>
                                <path d="M453.79453,381.774832 C453.79453,381.774832 447.549956,399.209258 454.785013,407.071619 L448.75365,427.782577 C448.75365,427.782577 470.184034,492.025571 464.061071,500.999194 C464.061071,500.999194 441.201995,512.420168 395.483871,496.920274 L414.056859,424.927333 L411.403575,394.53937 L415.077353,380.263152 L423.241304,379.447368 C423.241304,379.447368 418.342933,397.802506 427.323279,400.657749 C436.303625,403.512993 445.064643,379.905539 445.064643,379.905539 L453.79453,381.774832 Z" id="Shape" fill="#F0D0BF"></path>
                                <path d="M169.032258,493.172049 L176.699185,496.412211 L213.291298,446.729758 L224.791675,505.052632 L232.458589,503.612559 C237.376805,453.330515 241.387229,402.043253 236.466295,377.786372 L208.063848,376.526316 L195.169483,419.008408 L188.896556,447.809853 L169.032258,493.172049 Z" id="Shape" fill="#F0D0BF"></path>
                                <path d="M640.953426,379.447368 C640.953426,379.447368 630.136181,394.331984 630.663858,400.338034 C631.191534,406.344083 638.051232,504.269222 638.051232,504.269222 L654.145173,505.052632 L649.396167,434.546616 L653.353686,415.483867 L663.115591,504.269289 L682.903226,504.791562 L665.226269,389.631632 L661.796413,379.447422 L640.953426,379.447368 Z" id="Shape" fill="#F0D0BF"></path>
                                <g id="Group" transform="translate(682.903226, 0.000000)">
                                    <path d="M91.1930731,134.947307 C91.1930731,134.947307 110.167902,184.108824 75.3805577,184.108824 C40.5932136,184.108824 129.142811,233.270301 163.930141,204.724892 C198.717472,176.179484 178.161286,174.593675 178.161286,174.593675 C178.161286,174.593675 132.305271,179.351249 133.886494,138.119046 L91.1930731,134.947307 Z" id="Shape" fill="#FFB8B8"></path>
                                    <ellipse id="Oval" fill="#2F2E41" cx="115.911442" cy="93.65891" rx="55.9229173" ry="56.0860455"></ellipse>
                                    <path d="M81.7055718,339.522541 L21.6183716,494.936218 C21.6183716,494.936218 -8.42519507,542.511886 2.64346276,590.087459 C13.7121206,637.663033 44.1290323,724.250814 44.1290323,724.250814 C44.1290323,724.250814 67.106217,730.11439 65.5249267,709.498228 C63.9436364,688.882067 66.5103948,588.931863 42.7917889,561.97237 L138.630272,452.118233 L141.792759,577.400705 C141.792759,577.400705 135.467785,634.491495 137.049075,659.865098 C138.630365,685.238701 141.792759,728.056914 141.792759,728.056914 L160.767681,724.885202 C160.767681,724.885202 186.364833,608.079753 183.202346,570.019262 C183.202346,570.019262 241.952249,385.087472 181.865103,340.68361 L81.7055718,339.522541 Z" id="Shape" fill="#FEBC39"></path>
                                    <ellipse id="Oval" fill="#FFB8B8" cx="116.601594" cy="117.049779" rx="38.7346459" ry="38.8476355"></ellipse>
                                    <path d="M153.652142,170.629038 C153.652142,170.629038 167.162419,197.437075 126.439747,198.197114 C113.920956,198.430755 99.0325021,189.280772 92.8865982,178.340134 C89.2658111,171.894595 88.3509762,180.796587 82.4963374,180.144174 C71.4085436,178.908605 59.5631078,183.521671 48.9638491,189.174581 C46.1407079,190.677342 44.77236,193.973455 45.6979531,197.041558 C53.7360162,223.789216 76.6910294,352.454148 80.2346041,359.459601 C89.2836099,377.348895 187.214076,347.389304 187.214076,347.389304 C188.556214,298.714086 170.939824,230.614433 201.923754,181.087428 C188.130904,170.69263 170.49342,166.871344 153.652142,170.629038 Z" id="Shape" fill="#FFFFFF"></path>
                                    <polygon id="Shape" fill="#2F2E41" points="152.824188 87.177053 124.443871 72.2688945 85.2532786 78.367077 77.1455718 114.284259 97.3299238 113.505054 102.967742 100.309537 102.967742 113.287789 112.281642 112.928362 117.68678 91.9206799 121.065994 114.284259 154.173466 113.60564"></polygon>
                                    <ellipse id="Oval" fill="#2F2E41" cx="118.854728" cy="29.7011396" rx="22.5653806" ry="22.6312043"></ellipse>
                                    <path d="M90.4026954,22.8133853 C90.4034123,11.6439211 98.5273195,2.14451665 109.534249,0.442577574 C100.75275,-0.905168479 91.9999169,3.03993211 87.1744849,10.5206309 C82.349053,18.0013297 82.349053,27.6254408 87.1744849,35.1061396 C91.9999169,42.5868385 100.75275,46.5319391 109.534249,45.184193 C98.5273195,43.4822539 90.4034123,33.9828494 90.4026954,22.8133853 Z" id="Shape" fill="#2F2E41"></path>
                                    <polygon id="Shape" fill="#E6E6E6" points="220.645161 561.427088 113.101372 583.503662 110.650205 583.252868 16.1418651 573.686487 16.1418651 453.569592 131.834815 433.952676 215.758874 443.76851 215.78963 444.300945 215.78963 444.551739"></polygon>
                                    <polygon id="Shape" fill="#000000" opacity="0.1" points="220.645161 561.427088 113.101372 583.503662 110.650205 583.252868 110.650205 460.114375 215.78963 444.300945"></polygon>
                                    <polygon id="Shape" fill="#000000" opacity="0.05" points="215.78963 444.551739 215.758874 444.582585 110.650205 460.114375 16.1418651 453.569592 131.834815 433.952676 215.758874 443.76851 215.78963 444.300945"></polygon>
                                    <rect id="Rectangle-path" fill="#FFFFFF" transform="translate(60.844618, 513.020556) rotate(3.734110) translate(-60.844618, -513.020556) " x="28.0821547" y="497.597398" width="65.5249267" height="30.8463158"></rect>
                                    <rect id="Rectangle-path" fill="#6C63FF" transform="translate(60.844618, 513.020556) rotate(3.734110) translate(-60.844618, -513.020556) " x="43.4604538" y="507.655979" width="34.7683284" height="10.7291533"></rect>
                                    <path d="M53.1164847,422.721036 C53.1164847,422.721036 13.5854435,454.438144 30.9790754,465.539089 C48.3727073,476.640034 68.9289065,422.721036 68.9289065,422.721036 L53.1164847,422.721036 Z" id="Shape" fill="#FFB8B8"></path>
                                    <path d="M54.8269795,187.793148 C52.7793255,185.478682 26.9223871,198.704228 30.7565982,215.957176 L32.560446,335.499069 C32.560446,335.499069 23.0729849,433.821982 46.7915909,433.821982 C70.5101968,433.821982 67.711333,437.128331 70.8739003,429.199058 C74.0364676,421.269784 74.8856305,354.094985 74.8856305,354.094985 L54.8269795,187.793148 Z" id="Shape" fill="#FFFFFF"></path>
                                    <path d="M177.123879,411.991883 C177.123879,411.991883 197.680079,465.910894 215.07371,454.809936 C232.467342,443.708977 192.936301,411.991883 192.936301,411.991883 L177.123879,411.991883 Z" id="Shape" fill="#FFB8B8"></path>
                                    <path d="M181.865103,344.707016 C181.865103,344.707016 172.016305,410.540698 175.178886,418.469945 C178.341466,426.399191 175.542616,423.092869 199.261195,423.092869 C222.979774,423.092869 213.49234,324.769955 213.49234,324.769955 L215.296188,205.228023 C219.130399,187.975075 193.27346,174.749529 191.225806,177.063995 L168.492669,254.850357 L181.865103,344.707016 Z" id="Shape" fill="#FFFFFF"></path>
                                </g>
                            </g>
                        </g>
                    </g>
                </g>
            </g>
        </g>
    </g>
</svg>