<?xml version="1.0" encoding="UTF-8"?>
<svg width="51px" height="51px" viewBox="0 0 51 51" version="1.1" xmlns="http://www.w3.org/2000/svg" xmlns:xlink="http://www.w3.org/1999/xlink">
    <!-- Generator: Sketch 51.3 (57544) - http://www.bohemiancoding.com/sketch -->
    <title>Group 30</title>
    <desc>Created with Sketch.</desc>
    <defs></defs>
    <g id="Page-1" stroke="none" stroke-width="1" fill="none" fill-rule="evenodd">
        <g id="Group-30" fill="#FFFFFF">
            <circle id="Oval" cx="26" cy="18" r="6"></circle>
            <path d="M19.3295629,28.0796441 C22.4904772,28.6250141 24.5472896,28.8976991 25.5,28.8976991 C26.4527104,28.8976991 28.5095228,28.6250141 31.6704371,28.0796441 L31.6704377,28.0796472 C34.6146721,27.5716622 37.4132489,29.5466326 37.9212338,32.4908671 C37.9736487,32.7946588 38,33.1023749 38,33.4106552 L38,33.9106552 C38,37.2243637 35.3137085,39.9106552 32,39.9106552 L19,39.9106552 C15.6862915,39.9106552 13,37.2243637 13,33.9106552 L13,33.4106552 C13,30.4229194 15.4220384,28.0008811 18.4097742,28.0008811 C18.7180545,28.0008811 19.0257706,28.0272324 19.3295623,28.0796472 Z" id="Rectangle-3"></path>
            <path d="M25.5,50.5 C11.6928813,50.5 0.5,39.3071187 0.5,25.5 C0.5,11.6928813 11.6928813,0.5 25.5,0.5 C39.3071187,0.5 50.5,11.6928813 50.5,25.5 C50.5,39.3071187 39.3071187,50.5 25.5,50.5 Z M25.5,49.5 C38.754834,49.5 49.5,38.754834 49.5,25.5 C49.5,12.245166 38.754834,1.5 25.5,1.5 C12.245166,1.5 1.5,12.245166 1.5,25.5 C1.5,38.754834 12.245166,49.5 25.5,49.5 Z" id="Oval-8" fill-rule="nonzero"></path>
        </g>
    </g>
</svg>