<?xml version="1.0" encoding="UTF-8"?>
<svg width="64px" height="64px" viewBox="0 0 64 64" version="1.1" xmlns="http://www.w3.org/2000/svg" xmlns:xlink="http://www.w3.org/1999/xlink">
    <!-- Generator: Sketch 51.3 (57544) - http://www.bohemiancoding.com/sketch -->
    <title>Group 7</title>
    <desc>Created with Sketch.</desc>
    <defs></defs>
    <g id="Page-1" stroke="none" stroke-width="1" fill="none" fill-rule="evenodd">
        <g id="PR_MyAccReferEarn_Desktop" transform="translate(-746.000000, -1547.000000)" fill-rule="nonzero">
            <g id="Group-7" transform="translate(746.000000, 1547.000000)">
                <circle id="Oval" fill="#55ACEE" cx="32" cy="32" r="32"></circle>
                <path d="M47.5164889,24.4568307 C49.111469,23.4926152 50.3354966,21.9669578 50.9132377,20.1460494 C49.4207879,21.0393581 47.7670546,21.6873993 46.0084868,22.0367022 C44.599559,20.5226688 42.5921536,19.5764706 40.3693194,19.5764706 C36.104519,19.5764706 32.6455608,23.0665936 32.6455608,27.3698193 C32.6455608,27.9806635 32.7141064,28.575234 32.8465894,29.1459752 C26.4275003,28.8210828 20.7359157,25.7186221 16.9261656,21.0021611 C16.2614465,22.1529427 15.8801259,23.4926152 15.8801259,24.9206306 C15.8801259,27.623805 17.2447008,30.0102238 19.3160436,31.4074354 C18.050543,31.3673324 16.858772,31.0168671 15.8179165,30.4315958 C15.8173405,30.4647244 15.8173405,30.4978529 15.8173405,30.5304003 C15.8173405,34.3064751 18.4808247,37.4560132 22.0135125,38.1714739 C21.3660739,38.3504844 20.6823465,38.4452204 19.9790346,38.4452204 C19.4802073,38.4452204 18.9969324,38.3969806 18.5257537,38.3063129 C19.5084319,41.4017992 22.3602724,43.6551226 25.7408928,43.7184737 C23.096993,45.8090603 19.7670618,47.0545779 16.147396,47.0545779 C15.5253019,47.0545779 14.908968,47.0179621 14.3058824,46.9453118 C17.7222156,49.1573697 21.7831073,50.4470588 26.1446779,50.4470588 C40.351463,50.4470588 48.1207266,38.5719226 48.1207266,28.2724273 C48.1207266,27.9347485 48.1132384,27.598232 48.0982621,27.2646216 C49.6085682,26.1661483 50.9178458,24.7939284 51.9529412,23.231074 C50.5682059,23.8506362 49.0786362,24.2696834 47.5164889,24.4568307 Z" id="Shape" fill="#F1F2F2"></path>
            </g>
        </g>
    </g>
</svg>